Coordinates
version=1
nRows=11
nColumns=40
inDegrees=yes

Units are S.I. units (second, meters, Newtons, ...)
Angles are in degrees.

endheader
time	pelvis_tilt	pelvis_list	pelvis_rotation	pelvis_tx	pelvis_ty	pelvis_tz	hip_flexion_r	hip_adduction_r	hip_rotation_r	knee_angle_r	knee_angle_r_beta	ankle_angle_r	subtalar_angle_r	mtp_angle_r	hip_flexion_l	hip_adduction_l	hip_rotation_l	knee_angle_l	knee_angle_l_beta	ankle_angle_l	subtalar_angle_l	mtp_angle_l	lumbar_extension	lumbar_bending	lumbar_rotation	arm_flex_r	arm_add_r	arm_rot_r	elbow_flex_r	pro_sup_r	wrist_flex_r	wrist_dev_r	arm_flex_l	arm_add_l	arm_rot_l	elbow_flex_l	pro_sup_l	wrist_flex_l	wrist_dev_l
     30.82500000	     -6.29843011	     -7.76841602	      4.87803508	      1.06836583	      0.92258667	      0.44224481	      2.81783647	      7.45552231	    -19.86462159	      8.80069635	      8.80069635	     14.26208001	      9.66771666	     -2.65022767	     35.63445070	     -8.97287785	     -3.03272530	     19.34909523	     19.34909523	      5.33651818	     -8.34474666	     12.74365567	    -11.33941043	      8.31195627	      5.32718266	     43.61566216	    -15.01084912	      2.95026470	    102.14963773	     43.92398382	      0.00000000	      0.00000000	    -12.83965784	     -6.65113684	     -0.03711260	     31.95124060	     46.27570390	      0.00000000	      0.00000000
     30.83707143	     -6.30112482	     -7.66211855	      4.45526727	      1.07001586	      0.92149276	      0.44078231	      2.19303899	      7.26127560	    -19.39045209	      8.89812239	      8.89812239	     14.89051292	      9.81588271	     -2.64343448	     35.17054880	     -8.91034257	     -3.21591522	     20.04306485	     20.04306485	      4.99580863	     -8.88833600	     12.55304478	    -11.02777136	      8.05197756	      5.40832643	     43.58195157	    -14.86290804	      3.04840215	    102.40738369	     43.91848928	      0.00000000	      0.00000000	    -12.93661078	     -6.67815025	      0.02339700	     31.92457623	     46.26297782	      0.00000000	      0.00000000
     30.84914286	     -6.27769268	     -7.53200630	      4.05318612	      1.07176952	      0.92028060	      0.43923210	      1.58062040	      7.02602473	    -18.89392649	      9.08397735	      9.08397735	     15.62107487	      9.81154934	     -2.48618567	     34.68798732	     -8.78725817	     -3.15201914	     20.87848134	     20.87848134	      4.61674208	     -9.70961769	     12.16368060	    -10.74908518	      7.75791662	      5.36178769	     43.35173771	    -14.67116332	      3.30097291	    102.94327952	     43.90068742	      0.00000000	      0.00000000	    -13.00062258	     -6.73408455	      0.08451411	     31.90459304	     46.24976248	      0.00000000	      0.00000000
     30.86121429	     -6.35734178	     -7.38372994	      3.62218287	      1.07351538	      0.91895498	      0.43754577	      1.26182626	      6.70841658	    -18.08149919	      9.67387941	      9.67387941	     16.94974699	      9.33089311	     -0.59842584	     34.08857201	     -8.50492157	     -2.61584857	     21.27792161	     21.27792161	      3.26237154	    -11.49595594	     10.03721851	    -10.39895917	      7.48230462	      5.56305728	     42.65739092	    -15.16350649	      3.96181075	    104.77192654	     43.86753742	      0.00000000	      0.00000000	    -12.90691710	     -6.83650715	      0.29991036	     31.97614229	     46.20127655	      0.00000000	      0.00000000
     30.87328571	     -6.33448396	     -7.22339965	      3.17954999	      1.07544246	      0.91777919	      0.43593567	      0.84140280	      6.36002090	    -17.44249098	     10.29651014	     10.29651014	     18.19949861	      9.13582666	      0.96190781	     33.49469845	     -8.36760315	     -2.52619533	     21.93872504	     21.93872504	      2.46576486	    -12.43675239	      8.00425934	    -10.10259930	      7.12290247	      5.71975452	     41.88978487	    -15.33216612	      4.02551086	    105.48108828	     43.90735776	      0.00000000	      0.00000000	    -12.58504498	     -6.93950155	      0.51952481	     31.63920410	     46.15000800	      0.00000000	      0.00000000
     30.88535714	     -6.24612025	     -6.99528196	      2.77354730	      1.07730386	      0.91683923	      0.43421702	      0.27907871	      5.94676954	    -16.92658524	     10.69803028	     10.69803028	     18.72217194	      9.06055295	      0.86687051	     32.98670386	     -8.18562112	     -2.51051906	     22.87280927	     22.87280927	      2.62981463	    -13.02020195	      7.72222291	     -9.87271017	      6.70215500	      5.53783652	     41.19560844	    -15.18272963	      4.25503464	    105.55133455	     43.90003283	      0.00000000	      0.00000000	    -12.43392812	     -7.05212615	      0.50976902	     31.61809881	     46.15172983	      0.00000000	      0.00000000
     30.89742857	     -6.37977464	     -6.77725648	      2.35630489	      1.07868989	      0.91566929	      0.43254055	      0.54128059	      5.42845931	    -15.99229539	     12.15769585	     12.15769585	     19.53221111	      7.90325648	      0.90960739	     32.76583539	     -7.94565240	     -2.29891948	     23.72182291	     23.72182291	      2.65725272	    -13.97101975	      7.11472740	     -9.48818956	      6.25005602	      5.43362423	     40.21896839	    -15.39962007	      4.73137853	    106.29287269	     43.87953939	      0.00000000	      0.00000000	    -12.01450992	     -7.15010101	      0.44238111	     31.39642248	     46.15990443	      0.00000000	      0.00000000
     30.90950000	     -6.35874927	     -6.55090708	      1.99062190	      1.08008155	      0.91511936	      0.43082044	      0.66006048	      4.90762497	    -15.16689495	     13.61961062	     13.61961062	     19.95290891	      6.81331627	      0.86627641	     32.38090790	     -7.74336602	     -2.26561652	     24.50235692	     24.50235692	      2.95524815	    -14.60365397	      6.49108446	     -9.27221323	      5.79933370	      5.36307990	     38.99273559	    -15.66459379	      5.07423417	    106.78939813	     43.86961655	      0.00000000	      0.00000000	    -11.39950308	     -7.27003066	      0.34495831	     31.10309084	     46.17555987	      0.00000000	      0.00000000
     30.92157143	     -6.35213275	     -6.34813109	      1.67365087	      1.08116004	      0.91488343	      0.42905210	      1.10642839	      4.36989529	    -14.35594409	     15.59025410	     15.59025410	     20.17844378	      5.37819648	      0.50085067	     32.03783066	     -7.55900786	     -2.29013383	     25.20252612	     25.20252612	      3.39981586	    -15.08821369	      5.91501136	     -9.11019345	      5.37281840	      5.26085479	     37.57301291	    -15.95032410	      5.37639991	    107.21879237	     43.86265599	      0.00000000	      0.00000000	    -10.60809287	     -7.39675288	      0.23029960	     30.72348661	     46.19643729	      0.00000000	      0.00000000
     30.93364286	     -6.20147611	     -6.16052434	      1.38287364	      1.08212899	      0.91522628	      0.42728615	      1.59319519	      3.80170688	    -13.78181356	     17.89064165	     17.89064165	     20.17619724	      4.10403632	     -0.05207016	     31.53403089	     -7.42216941	     -2.43917973	     25.83603632	     25.83603632	      4.03121394	    -15.39064192	      5.45204336	     -9.13044975	      4.93933822	      4.98884280	     36.07978865	    -16.00830629	      5.71628009	    107.26389700	     43.85428302	      0.00000000	      0.00000000	     -9.86198754	     -7.58211366	      0.15622496	     30.57823849	     46.21529694	      0.00000000	      0.00000000
     30.94571429	     -6.29501988	     -5.90281540	      1.08569135	      1.08246067	      0.91544240	      0.42552461	      2.97325428	      3.08771476	    -13.05812867	     21.24933269	     21.24933269	     19.93975438	      1.97505243	     -0.99562085	     31.24867392	     -7.22353973	     -2.76098382	     26.27659754	     26.27659754	      4.65276734	    -15.50465873	      4.98244609	     -8.98075069	      4.43991459	      4.78594651	     34.44059788	    -16.28297006	      6.05136377	    107.36022415	     43.84612695	      0.00000000	      0.00000000	     -8.87261605	     -7.76880677	      0.05982179	     30.32402311	     46.24073019	      0.00000000	      0.00000000
